REM DIRINDEX 1\2\4\18,1\2\4\19,1\2\5\20,1\2\5\21,1\2\6\22,1\2\7\23,1\2\8\24,1\2\8\25,1\2\9\26,1\2\10\27,1\3\11\28,1\3\11\29,1\3\11\30,1\3\11\31,1\3\12\32,1\3\12\33,1\3\12\34,1\3\12\35,1\3\13\36,1\3\13\37,1\3\14\38,1\3\14\39,1\3\15\40,1\3\15\41,1\3\15\42,1\3\16\43,1\3\16\44,1\3\17\45,1\3\17\46
REM DIRNAME folder01,folder02,folder03,folder04,folder05,folder06,folder07,folder08,folder09,folder10,folder11,folder12,folder13,folder14,folder15,folder16,folder17,folder18,folder19,folder20,folder21,folder22,folder23,folder24,folder25,folder26,folder27,folder28,folder29,folder30,folder31,folder32,folder33,folder34,folder35,folder36,folder37,folder38,folder39,folder40,folder41,folder42,folder43,folder44,folder45,folder46
TITLE ""
FILE "15.mp3" MP3
  TRACK 01 AUDIO
    TITLE "0:"
    INDEX 01 00:00:00
  TRACK 02 AUDIO
    TITLE "18:cjc023_2476"
    INDEX 01 00:00:13
  TRACK 03 AUDIO
    TITLE "0:"
    INDEX 01 00:01:40
  TRACK 04 AUDIO
    TITLE "19:cjc023_2477"
    INDEX 01 00:01:64
  TRACK 05 AUDIO
    TITLE "0:"
    INDEX 01 00:03:64
  TRACK 06 AUDIO
    TITLE "18:cjc023_2478"
    INDEX 01 00:04:72
  TRACK 07 AUDIO
    TITLE "0:"
    INDEX 01 00:06:14
  TRACK 08 AUDIO
    TITLE "19:cjc023_2479"
    INDEX 01 00:06:41
  TRACK 09 AUDIO
    TITLE "0:"
    INDEX 01 00:08:62
  TRACK 10 AUDIO
    TITLE "18:cjc023_2480"
    INDEX 01 00:09:61
  TRACK 11 AUDIO
    TITLE "0:"
    INDEX 01 00:11:11
  TRACK 12 AUDIO
    TITLE "19:cjc023_2481"
    INDEX 01 00:11:33
  TRACK 13 AUDIO
    TITLE "0:"
    INDEX 01 00:13:28
  TRACK 14 AUDIO
    TITLE "18:cjc023_2482"
    INDEX 01 00:14:29
  TRACK 15 AUDIO
    TITLE "0:"
    INDEX 01 00:15:44
  TRACK 16 AUDIO
    TITLE "19:cjc023_2483"
    INDEX 01 00:15:70
  TRACK 17 AUDIO
    TITLE "0:"
    INDEX 01 00:18:46
  TRACK 18 AUDIO
    TITLE "18:cjc023_2484"
    INDEX 01 00:19:46
  TRACK 19 AUDIO
    TITLE "0:"
    INDEX 01 00:20:65
  TRACK 20 AUDIO
    TITLE "19:cjc023_2485"
    INDEX 01 00:21:13
  TRACK 21 AUDIO
    TITLE "0:"
    INDEX 01 00:24:27
  TRACK 22 AUDIO
    TITLE "18:cjc023_2486"
    INDEX 01 00:25:23
  TRACK 23 AUDIO
    TITLE "0:"
    INDEX 01 00:26:40
  TRACK 24 AUDIO
    TITLE "19:cjc023_2487"
    INDEX 01 00:26:64
  TRACK 25 AUDIO
    TITLE "0:"
    INDEX 01 00:29:74
  TRACK 26 AUDIO
    TITLE "18:cjc023_2488"
    INDEX 01 00:30:73
  TRACK 27 AUDIO
    TITLE "0:"
    INDEX 01 00:32:23
  TRACK 28 AUDIO
    TITLE "19:cjc023_2489"
    INDEX 01 00:32:48
  TRACK 29 AUDIO
    TITLE "0:"
    INDEX 01 00:35:02
  TRACK 30 AUDIO
    TITLE "18:cjc023_2490"
    INDEX 01 00:35:74
  TRACK 31 AUDIO
    TITLE "0:"
    INDEX 01 00:37:12
  TRACK 32 AUDIO
    TITLE "19:cjc023_2491"
    INDEX 01 00:37:32
  TRACK 33 AUDIO
    TITLE "0:"
    INDEX 01 00:39:60
  TRACK 34 AUDIO
    TITLE "18:cjc023_2492"
    INDEX 01 00:40:56
  TRACK 35 AUDIO
    TITLE "0:"
    INDEX 01 00:41:59
  TRACK 36 AUDIO
    TITLE "19:cjc023_2493"
    INDEX 01 00:42:08
  TRACK 37 AUDIO
    TITLE "0:"
    INDEX 01 00:43:70
  TRACK 38 AUDIO
    TITLE "18:cjc023_2494"
    INDEX 01 00:44:71
  TRACK 39 AUDIO
    TITLE "0:"
    INDEX 01 00:46:06
  TRACK 40 AUDIO
    TITLE "19:cjc023_2495"
    INDEX 01 00:46:27
  TRACK 41 AUDIO
    TITLE "0:"
    INDEX 01 00:48:38
  TRACK 42 AUDIO
    TITLE "18:cjc023_2496"
    INDEX 01 00:49:37
  TRACK 43 AUDIO
    TITLE "0:"
    INDEX 01 00:50:56
  TRACK 44 AUDIO
    TITLE "19:cjc023_2497"
    INDEX 01 00:51:01
  TRACK 45 AUDIO
    TITLE "0:"
    INDEX 01 00:53:43
  TRACK 46 AUDIO
    TITLE "18:cjc023_2498"
    INDEX 01 00:54:36
  TRACK 47 AUDIO
    TITLE "0:"
    INDEX 01 00:55:55
  TRACK 48 AUDIO
    TITLE "19:cjc023_2499"
    INDEX 01 00:56:08
  TRACK 49 AUDIO
    TITLE "0:"
    INDEX 01 00:57:70
  TRACK 50 AUDIO
    TITLE "18:cjc023_2500"
    INDEX 01 00:58:67
  TRACK 51 AUDIO
    TITLE "0:"
    INDEX 01 01:00:08
  TRACK 52 AUDIO
    TITLE "19:cjc023_2501"
    INDEX 01 01:00:31
  TRACK 53 AUDIO
    TITLE "0:"
    INDEX 01 01:02:55
  TRACK 54 AUDIO
    TITLE "18:cjc023_2502"
    INDEX 01 01:03:53
  TRACK 55 AUDIO
    TITLE "0:"
    INDEX 01 01:04:66
  TRACK 56 AUDIO
    TITLE "19:cjc023_2503"
    INDEX 01 01:05:11
  TRACK 57 AUDIO
    TITLE "0:"
    INDEX 01 01:07:41
  TRACK 58 AUDIO
    TITLE "18:cjc023_2504"
    INDEX 01 01:08:38
  TRACK 59 AUDIO
    TITLE "0:"
    INDEX 01 01:09:44
  TRACK 60 AUDIO
    TITLE "19:cjc023_2505"
    INDEX 01 01:09:67
  TRACK 61 AUDIO
    TITLE "0:"
    INDEX 01 01:12:19
  TRACK 62 AUDIO
    TITLE "18:cjc023_2506"
    INDEX 01 01:13:16
  TRACK 63 AUDIO
    TITLE "0:"
    INDEX 01 01:14:37
  TRACK 64 AUDIO
    TITLE "19:cjc023_2507"
    INDEX 01 01:14:61
  TRACK 65 AUDIO
    TITLE "0:"
    INDEX 01 01:17:16
  TRACK 66 AUDIO
    TITLE "18:cjc023_2508"
    INDEX 01 01:18:15
  TRACK 67 AUDIO
    TITLE "0:"
    INDEX 01 01:19:44
  TRACK 68 AUDIO
    TITLE "19:cjc023_2509"
    INDEX 01 01:19:66
  TRACK 69 AUDIO
    TITLE "0:"
    INDEX 01 01:21:47
  TRACK 70 AUDIO
    TITLE "18:cjc023_2510"
    INDEX 01 01:22:44
  TRACK 71 AUDIO
    TITLE "0:"
    INDEX 01 01:23:63
  TRACK 72 AUDIO
    TITLE "19:cjc023_2511"
    INDEX 01 01:24:10
  TRACK 73 AUDIO
    TITLE "0:"
    INDEX 01 01:26:52
  TRACK 74 AUDIO
    TITLE "18:cjc023_2512"
    INDEX 01 01:27:48
  TRACK 75 AUDIO
    TITLE "0:"
    INDEX 01 01:28:59
  TRACK 76 AUDIO
    TITLE "19:cjc023_2513"
    INDEX 01 01:29:07
  TRACK 77 AUDIO
    TITLE "0:"
    INDEX 01 01:30:52
  TRACK 78 AUDIO
    TITLE "18:cjc023_2514"
    INDEX 01 01:31:49
  TRACK 79 AUDIO
    TITLE "0:"
    INDEX 01 01:33:01
  TRACK 80 AUDIO
    TITLE "19:cjc023_2515"
    INDEX 01 01:33:21
  TRACK 81 AUDIO
    TITLE "0:"
    INDEX 01 01:35:71
  TRACK 82 AUDIO
    TITLE "18:cjc023_2516"
    INDEX 01 01:36:68
  TRACK 83 AUDIO
    TITLE "0:"
    INDEX 01 01:38:06
  TRACK 84 AUDIO
    TITLE "19:cjc023_2517"
    INDEX 01 01:38:26
  TRACK 85 AUDIO
    TITLE "0:"
    INDEX 01 01:40:11
  TRACK 86 AUDIO
    TITLE "18:cjc023_2518"
    INDEX 01 01:41:09
  TRACK 87 AUDIO
    TITLE "0:"
    INDEX 01 01:42:20
  TRACK 88 AUDIO
    TITLE "19:cjc023_2519"
    INDEX 01 01:42:43
  TRACK 89 AUDIO
    TITLE "0:"
    INDEX 01 01:44:24
  TRACK 90 AUDIO
    TITLE "18:cjc023_2520"
    INDEX 01 01:45:30
  TRACK 91 AUDIO
    TITLE "0:"
    INDEX 01 01:46:41
  TRACK 92 AUDIO
    TITLE "19:cjc023_2521"
    INDEX 01 01:46:65
  TRACK 93 AUDIO
    TITLE "0:"
    INDEX 01 01:48:73
  TRACK 94 AUDIO
    TITLE "18:cjc023_2522"
    INDEX 01 01:49:71
  TRACK 95 AUDIO
    TITLE "0:"
    INDEX 01 01:51:01
  TRACK 96 AUDIO
    TITLE "19:cjc023_2523"
    INDEX 01 01:51:23
  TRACK 97 AUDIO
    TITLE "0:"
    INDEX 01 01:52:71
  TRACK 98 AUDIO
    TITLE "18:cjc023_2524"
    INDEX 01 01:53:72
  TRACK 99 AUDIO
    TITLE "0:"
    INDEX 01 01:55:16
  TRACK 100 AUDIO
    TITLE "19:cjc023_2525"
    INDEX 01 01:55:38
  TRACK 101 AUDIO
    TITLE "0:"
    INDEX 01 01:57:04
  TRACK 102 AUDIO
    TITLE "18:cjc023_2526"
    INDEX 01 01:58:03
  TRACK 103 AUDIO
    TITLE "0:"
    INDEX 01 01:59:22
  TRACK 104 AUDIO
    TITLE "19:cjc023_2527"
    INDEX 01 01:59:46
  TRACK 105 AUDIO
    TITLE "0:"
    INDEX 01 02:01:48
  TRACK 106 AUDIO
    TITLE "18:cjc023_2528"
    INDEX 01 02:02:46
  TRACK 107 AUDIO
    TITLE "0:"
    INDEX 01 02:03:63
  TRACK 108 AUDIO
    TITLE "19:cjc023_2529"
    INDEX 01 02:04:10
  TRACK 109 AUDIO
    TITLE "0:"
    INDEX 01 02:06:30
  TRACK 110 AUDIO
    TITLE "18:cjc023_2530"
    INDEX 01 02:07:33
  TRACK 111 AUDIO
    TITLE "0:"
    INDEX 01 02:08:64
  TRACK 112 AUDIO
    TITLE "19:cjc023_2531"
    INDEX 01 02:09:11
  TRACK 113 AUDIO
    TITLE "0:"
    INDEX 01 02:11:15
  TRACK 114 AUDIO
    TITLE "18:cjc023_2532"
    INDEX 01 02:12:21
  TRACK 115 AUDIO
    TITLE "0:"
    INDEX 01 02:13:46
  TRACK 116 AUDIO
    TITLE "19:cjc023_2533"
    INDEX 01 02:14:00
  TRACK 117 AUDIO
    TITLE "0:"
    INDEX 01 02:17:06
  TRACK 118 AUDIO
    TITLE "18:cjc023_2534"
    INDEX 01 02:18:02
  TRACK 119 AUDIO
    TITLE "0:"
    INDEX 01 02:19:21
  TRACK 120 AUDIO
    TITLE "19:cjc023_2535"
    INDEX 01 02:19:44
  TRACK 121 AUDIO
    TITLE "0:"
    INDEX 01 02:21:20
  TRACK 122 AUDIO
    TITLE "18:cjc023_2536"
    INDEX 01 02:22:29
  TRACK 123 AUDIO
    TITLE "0:"
    INDEX 01 02:23:44
  TRACK 124 AUDIO
    TITLE "19:cjc023_2537"
    INDEX 01 02:23:66
  TRACK 125 AUDIO
    TITLE "0:"
    INDEX 01 02:25:47
  TRACK 126 AUDIO
    TITLE "18:cjc023_2538"
    INDEX 01 02:26:48
  TRACK 127 AUDIO
    TITLE "0:"
    INDEX 01 02:27:65
  TRACK 128 AUDIO
    TITLE "19:cjc023_2539"
    INDEX 01 02:28:10
  TRACK 129 AUDIO
    TITLE "0:"
    INDEX 01 02:30:58
  TRACK 130 AUDIO
    TITLE "18:cjc023_2540"
    INDEX 01 02:31:55
  TRACK 131 AUDIO
    TITLE "0:"
    INDEX 01 02:33:09
  TRACK 132 AUDIO
    TITLE "19:cjc023_2541"
    INDEX 01 02:33:27
  TRACK 133 AUDIO
    TITLE "0:"
    INDEX 01 02:35:55
  TRACK 134 AUDIO
    TITLE "18:cjc023_2542"
    INDEX 01 02:36:51
  TRACK 135 AUDIO
    TITLE "0:"
    INDEX 01 02:37:62
  TRACK 136 AUDIO
    TITLE "19:cjc023_2543"
    INDEX 01 02:38:08
  TRACK 137 AUDIO
    TITLE "0:"
    INDEX 01 02:41:40
  TRACK 138 AUDIO
    TITLE "18:cjc023_2544"
    INDEX 01 02:42:36
  TRACK 139 AUDIO
    TITLE "0:"
    INDEX 01 02:43:55
  TRACK 140 AUDIO
    TITLE "19:cjc023_2545"
    INDEX 01 02:44:03
  TRACK 141 AUDIO
    TITLE "0:"
    INDEX 01 02:46:02
  TRACK 142 AUDIO
    TITLE "18:cjc023_2546"
    INDEX 01 02:46:73
  TRACK 143 AUDIO
    TITLE "0:"
    INDEX 01 02:48:30
  TRACK 144 AUDIO
    TITLE "19:cjc023_2547"
    INDEX 01 02:48:50
  TRACK 145 AUDIO
    TITLE "0:"
    INDEX 01 02:51:48
  TRACK 146 AUDIO
    TITLE "18:cjc023_2548"
    INDEX 01 02:52:42
  TRACK 147 AUDIO
    TITLE "0:"
    INDEX 01 02:53:61
  TRACK 148 AUDIO
    TITLE "19:cjc023_2549"
    INDEX 01 02:54:07
  TRACK 149 AUDIO
    TITLE "0:"
    INDEX 01 02:56:26
  TRACK 150 AUDIO
    TITLE "18:cjc023_2550"
    INDEX 01 02:57:25
  TRACK 151 AUDIO
    TITLE "0:"
    INDEX 01 02:58:44
  TRACK 152 AUDIO
    TITLE "19:cjc023_2551"
    INDEX 01 02:58:66
  TRACK 153 AUDIO
    TITLE "0:"
    INDEX 01 03:01:41
  TRACK 154 AUDIO
    TITLE "18:cjc023_2552"
    INDEX 01 03:02:38
  TRACK 155 AUDIO
    TITLE "0:"
    INDEX 01 03:03:48
  TRACK 156 AUDIO
    TITLE "19:cjc023_2553"
    INDEX 01 03:03:73
  TRACK 157 AUDIO
    TITLE "0:"
    INDEX 01 03:05:54
  TRACK 158 AUDIO
    TITLE "18:cjc023_2554"
    INDEX 01 03:06:50
  TRACK 159 AUDIO
    TITLE "0:"
    INDEX 01 03:07:73
  TRACK 160 AUDIO
    TITLE "19:cjc023_2555"
    INDEX 01 03:08:21
  TRACK 161 AUDIO
    TITLE "0:"
    INDEX 01 03:10:05
  TRACK 162 AUDIO
    TITLE "18:cjc023_2556"
    INDEX 01 03:11:00
  TRACK 163 AUDIO
    TITLE "0:"
    INDEX 01 03:12:33
  TRACK 164 AUDIO
    TITLE "19:cjc023_2557"
    INDEX 01 03:12:56
  TRACK 165 AUDIO
    TITLE "0:"
    INDEX 01 03:15:33
  TRACK 166 AUDIO
    TITLE "18:cjc023_2558"
    INDEX 01 03:16:31
  TRACK 167 AUDIO
    TITLE "0:"
    INDEX 01 03:17:44
  TRACK 168 AUDIO
    TITLE "19:cjc023_2559"
    INDEX 01 03:17:65
  TRACK 169 AUDIO
    TITLE "0:"
    INDEX 01 03:19:70
  TRACK 170 AUDIO
    TITLE "18:cjc023_2560"
    INDEX 01 03:20:70
  TRACK 171 AUDIO
    TITLE "0:"
    INDEX 01 03:22:18
  TRACK 172 AUDIO
    TITLE "19:cjc023_2561"
    INDEX 01 03:22:39
  TRACK 173 AUDIO
    TITLE "0:"
    INDEX 01 03:24:42
  TRACK 174 AUDIO
    TITLE "18:cjc023_2562"
    INDEX 01 03:25:41
  TRACK 175 AUDIO
    TITLE "0:"
    INDEX 01 03:26:53
  TRACK 176 AUDIO
    TITLE "19:cjc023_2563"
    INDEX 01 03:27:01
  TRACK 177 AUDIO
    TITLE "0:"
    INDEX 01 03:29:16
  TRACK 178 AUDIO
    TITLE "18:cjc023_2564"
    INDEX 01 03:30:13
  TRACK 179 AUDIO
    TITLE "0:"
    INDEX 01 03:31:54
  TRACK 180 AUDIO
    TITLE "19:cjc023_2565"
    INDEX 01 03:32:02
  TRACK 181 AUDIO
    TITLE "0:"
    INDEX 01 03:35:38
  TRACK 182 AUDIO
    TITLE "18:cjc023_2566"
    INDEX 01 03:36:37
  TRACK 183 AUDIO
    TITLE "0:"
    INDEX 01 03:37:62
  TRACK 184 AUDIO
    TITLE "19:cjc023_2567"
    INDEX 01 03:38:09
  TRACK 185 AUDIO
    TITLE "0:"
    INDEX 01 03:40:02
  TRACK 186 AUDIO
    TITLE "18:cjc023_2568"
    INDEX 01 03:40:74
  TRACK 187 AUDIO
    TITLE "0:"
    INDEX 01 03:42:20
  TRACK 188 AUDIO
    TITLE "19:cjc023_2569"
    INDEX 01 03:42:42
  TRACK 189 AUDIO
    TITLE "0:"
    INDEX 01 03:45:71
  TRACK 190 AUDIO
    TITLE "18:cjc023_2570"
    INDEX 01 03:46:67
  TRACK 191 AUDIO
    TITLE "0:"
    INDEX 01 03:48:25
  TRACK 192 AUDIO
    TITLE "19:cjc023_2571"
    INDEX 01 03:48:50
  TRACK 193 AUDIO
    TITLE "0:"
    INDEX 01 03:51:15
  TRACK 194 AUDIO
    TITLE "18:cjc023_2572"
    INDEX 01 03:52:13
  TRACK 195 AUDIO
    TITLE "0:"
    INDEX 01 03:53:51
  TRACK 196 AUDIO
    TITLE "19:cjc023_2573"
    INDEX 01 03:53:71
  TRACK 197 AUDIO
    TITLE "0:"
    INDEX 01 03:56:24
  TRACK 198 AUDIO
    TITLE "18:cjc023_2574"
    INDEX 01 03:57:20
  TRACK 199 AUDIO
    TITLE "0:"
    INDEX 01 03:58:45
  TRACK 200 AUDIO
    TITLE "19:cjc023_2575"
    INDEX 01 03:58:64
  TRACK 201 AUDIO
    TITLE "0:"
    INDEX 01 04:00:59
  TRACK 202 AUDIO
    TITLE "18:cjc023_2576"
    INDEX 01 04:01:55
  TRACK 203 AUDIO
    TITLE "0:"
    INDEX 01 04:02:74
  TRACK 204 AUDIO
    TITLE "19:cjc023_2577"
    INDEX 01 04:03:22
  TRACK 205 AUDIO
    TITLE "0:"
    INDEX 01 04:06:05
  TRACK 206 AUDIO
    TITLE "18:cjc023_2578"
    INDEX 01 04:07:03
  TRACK 207 AUDIO
    TITLE "0:"
    INDEX 01 04:08:39
  TRACK 208 AUDIO
    TITLE "19:cjc023_2579"
    INDEX 01 04:08:63
  TRACK 209 AUDIO
    TITLE "0:"
    INDEX 01 04:11:02
  TRACK 210 AUDIO
    TITLE "18:cjc023_2580"
    INDEX 01 04:11:73
  TRACK 211 AUDIO
    TITLE "0:"
    INDEX 01 04:13:13
  TRACK 212 AUDIO
    TITLE "19:cjc023_2581"
    INDEX 01 04:13:34
  TRACK 213 AUDIO
    TITLE "0:"
    INDEX 01 04:15:61
  TRACK 214 AUDIO
    TITLE "18:cjc023_2582"
    INDEX 01 04:16:58
  TRACK 215 AUDIO
    TITLE "0:"
    INDEX 01 04:18:02
  TRACK 216 AUDIO
    TITLE "19:cjc023_2583"
    INDEX 01 04:18:26
  TRACK 217 AUDIO
    TITLE "0:"
    INDEX 01 04:21:09
  TRACK 218 AUDIO
    TITLE "18:cjc023_2584"
    INDEX 01 04:22:08
  TRACK 219 AUDIO
    TITLE "0:"
    INDEX 01 04:23:21
  TRACK 220 AUDIO
    TITLE "19:cjc023_2585"
    INDEX 01 04:23:43
  TRACK 221 AUDIO
    TITLE "0:"
    INDEX 01 04:25:49
  TRACK 222 AUDIO
    TITLE "18:cjc023_2586"
    INDEX 01 04:26:51
  TRACK 223 AUDIO
    TITLE "0:"
    INDEX 01 04:28:12
  TRACK 224 AUDIO
    TITLE "19:cjc023_2587"
    INDEX 01 04:28:32
  TRACK 225 AUDIO
    TITLE "0:"
    INDEX 01 04:31:23
  TRACK 226 AUDIO
    TITLE "18:cjc023_2588"
    INDEX 01 04:32:16
  TRACK 227 AUDIO
    TITLE "0:"
    INDEX 01 04:33:35
  TRACK 228 AUDIO
    TITLE "19:cjc023_2589"
    INDEX 01 04:33:55
  TRACK 229 AUDIO
    TITLE "0:"
    INDEX 01 04:36:04
  TRACK 230 AUDIO
    TITLE "18:cjc023_2590"
    INDEX 01 04:37:00
  TRACK 231 AUDIO
    TITLE "0:"
    INDEX 01 04:37:74
  TRACK 232 AUDIO
    TITLE "19:cjc023_2591"
    INDEX 01 04:38:21
  TRACK 233 AUDIO
    TITLE "0:"
    INDEX 01 04:40:31
  TRACK 234 AUDIO
    TITLE "18:cjc023_2592"
    INDEX 01 04:41:29
  TRACK 235 AUDIO
    TITLE "0:"
    INDEX 01 04:42:52
  TRACK 236 AUDIO
    TITLE "19:cjc023_2593"
    INDEX 01 04:43:02
  TRACK 237 AUDIO
    TITLE "0:"
    INDEX 01 04:44:68
  TRACK 238 AUDIO
    TITLE "18:cjc023_2594"
    INDEX 01 04:45:66
  TRACK 239 AUDIO
    TITLE "0:"
    INDEX 01 04:47:08
  TRACK 240 AUDIO
    TITLE "19:cjc023_2595"
    INDEX 01 04:47:29
  TRACK 241 AUDIO
    TITLE "0:"
    INDEX 01 04:49:56
  TRACK 242 AUDIO
    TITLE "18:cjc023_2596"
    INDEX 01 04:50:53
  TRACK 243 AUDIO
    TITLE "0:"
    INDEX 01 04:52:03
  TRACK 244 AUDIO
    TITLE "19:cjc023_2597"
    INDEX 01 04:52:25
  TRACK 245 AUDIO
    TITLE "0:"
    INDEX 01 04:54:41
  TRACK 246 AUDIO
    TITLE "18:cjc023_2598"
    INDEX 01 04:55:41
  TRACK 247 AUDIO
    TITLE "0:"
    INDEX 01 04:56:48
  TRACK 248 AUDIO
    TITLE "19:cjc023_2599"
    INDEX 01 04:56:70
  TRACK 249 AUDIO
    TITLE "0:"
    INDEX 01 04:58:43
  TRACK 250 AUDIO
    TITLE "18:cjc023_2600"
    INDEX 01 04:59:40
  TRACK 251 AUDIO
    TITLE "0:"
    INDEX 01 05:00:46
  TRACK 252 AUDIO
    TITLE "19:cjc023_2601"
    INDEX 01 05:00:71
  TRACK 253 AUDIO
    TITLE "0:"
    INDEX 01 05:02:58
  TRACK 254 AUDIO
    TITLE "18:cjc023_2602"
    INDEX 01 05:03:58
  TRACK 255 AUDIO
    TITLE "0:"
    INDEX 01 05:05:00
  TRACK 256 AUDIO
    TITLE "19:cjc023_2603"
    INDEX 01 05:05:23
  TRACK 257 AUDIO
    TITLE "0:"
    INDEX 01 05:07:69
  TRACK 258 AUDIO
    TITLE "18:cjc023_2604"
    INDEX 01 05:08:65
  TRACK 259 AUDIO
    TITLE "0:"
    INDEX 01 05:10:09
  TRACK 260 AUDIO
    TITLE "19:cjc023_2605"
    INDEX 01 05:10:32
  TRACK 261 AUDIO
    TITLE "0:"
    INDEX 01 05:12:27
  TRACK 262 AUDIO
    TITLE "18:cjc023_2606"
    INDEX 01 05:13:27
  TRACK 263 AUDIO
    TITLE "0:"
    INDEX 01 05:14:52
  TRACK 264 AUDIO
    TITLE "19:cjc023_2607"
    INDEX 01 05:15:00
  TRACK 265 AUDIO
    TITLE "0:"
    INDEX 01 05:17:36
  TRACK 266 AUDIO
    TITLE "18:cjc023_2608"
    INDEX 01 05:18:42
  TRACK 267 AUDIO
    TITLE "0:"
    INDEX 01 05:20:01
  TRACK 268 AUDIO
    TITLE "19:cjc023_2609"
    INDEX 01 05:20:23
  TRACK 269 AUDIO
    TITLE "0:"
    INDEX 01 05:22:65
  TRACK 270 AUDIO
    TITLE "18:cjc023_2610"
    INDEX 01 05:23:62
  TRACK 271 AUDIO
    TITLE "0:"
    INDEX 01 05:24:72
  TRACK 272 AUDIO
    TITLE "19:cjc023_2611"
    INDEX 01 05:25:20
  TRACK 273 AUDIO
    TITLE "0:"
    INDEX 01 05:27:27
  TRACK 274 AUDIO
    TITLE "18:cjc023_2612"
    INDEX 01 05:28:28
  TRACK 275 AUDIO
    TITLE "0:"
    INDEX 01 05:29:44
  TRACK 276 AUDIO
    TITLE "19:cjc023_2613"
    INDEX 01 05:29:65
  TRACK 277 AUDIO
    TITLE "0:"
    INDEX 01 05:32:34
  TRACK 278 AUDIO
    TITLE "18:cjc023_2614"
    INDEX 01 05:33:33
  TRACK 279 AUDIO
    TITLE "0:"
    INDEX 01 05:34:41
  TRACK 280 AUDIO
    TITLE "19:cjc023_2615"
    INDEX 01 05:34:64
  TRACK 281 AUDIO
    TITLE "0:"
    INDEX 01 05:37:04
  TRACK 282 AUDIO
    TITLE "18:cjc023_2616"
    INDEX 01 05:38:05
  TRACK 283 AUDIO
    TITLE "0:"
    INDEX 01 05:39:30
  TRACK 284 AUDIO
    TITLE "19:cjc023_2617"
    INDEX 01 05:39:50
  TRACK 285 AUDIO
    TITLE "0:"
    INDEX 01 05:42:13
  TRACK 286 AUDIO
    TITLE "18:cjc023_2618"
    INDEX 01 05:43:10
  TRACK 287 AUDIO
    TITLE "0:"
    INDEX 01 05:44:27
  TRACK 288 AUDIO
    TITLE "19:cjc023_2619"
    INDEX 01 05:44:51
  TRACK 289 AUDIO
    TITLE "0:"
    INDEX 01 05:46:28
  TRACK 290 AUDIO
    TITLE "18:cjc023_2620"
    INDEX 01 05:47:26
  TRACK 291 AUDIO
    TITLE "0:"
    INDEX 01 05:48:33
  TRACK 292 AUDIO
    TITLE "19:cjc023_2621"
    INDEX 01 05:48:55
  TRACK 293 AUDIO
    TITLE "0:"
    INDEX 01 05:50:69
  TRACK 294 AUDIO
    TITLE "18:cjc023_2622"
    INDEX 01 05:51:65
  TRACK 295 AUDIO
    TITLE "0:"
    INDEX 01 05:52:74
  TRACK 296 AUDIO
    TITLE "19:cjc023_2623"
    INDEX 01 05:53:22
  TRACK 297 AUDIO
    TITLE "0:"
    INDEX 01 05:56:01
  TRACK 298 AUDIO
    TITLE "18:cjc023_2624"
    INDEX 01 05:56:72
  TRACK 299 AUDIO
    TITLE "0:"
    INDEX 01 05:58:14
  TRACK 300 AUDIO
    TITLE "19:cjc023_2625"
    INDEX 01 05:58:35
  TRACK 301 AUDIO
    TITLE "0:"
    INDEX 01 06:01:38
  TRACK 302 AUDIO
    TITLE "18:cjc023_2626"
    INDEX 01 06:02:33
  TRACK 303 AUDIO
    TITLE "0:"
    INDEX 01 06:03:60
  TRACK 304 AUDIO
    TITLE "19:cjc023_2627"
    INDEX 01 06:04:11
  TRACK 305 AUDIO
    TITLE "0:"
    INDEX 01 06:07:19
  TRACK 306 AUDIO
    TITLE "18:cjc023_2628"
    INDEX 01 06:08:16
  TRACK 307 AUDIO
    TITLE "0:"
    INDEX 01 06:09:23
  TRACK 308 AUDIO
    TITLE "19:cjc023_2629"
    INDEX 01 06:09:43
  TRACK 309 AUDIO
    TITLE "0:"
    INDEX 01 06:11:40
  TRACK 310 AUDIO
    TITLE "18:cjc023_2630"
    INDEX 01 06:12:36
  TRACK 311 AUDIO
    TITLE "0:"
    INDEX 01 06:13:45
  TRACK 312 AUDIO
    TITLE "19:cjc023_2631"
    INDEX 01 06:13:68
  TRACK 313 AUDIO
    TITLE "0:"
    INDEX 01 06:16:06
  TRACK 314 AUDIO
    TITLE "18:cjc023_2632"
    INDEX 01 06:17:03
  TRACK 315 AUDIO
    TITLE "0:"
    INDEX 01 06:18:34
  TRACK 316 AUDIO
    TITLE "19:cjc023_2633"
    INDEX 01 06:18:58
  TRACK 317 AUDIO
    TITLE "0:"
    INDEX 01 06:21:11
  TRACK 318 AUDIO
    TITLE "18:cjc023_2634"
    INDEX 01 06:22:14
  TRACK 319 AUDIO
    TITLE "0:"
    INDEX 01 06:23:26
  TRACK 320 AUDIO
    TITLE "19:cjc023_2635"
    INDEX 01 06:23:49
  TRACK 321 AUDIO
    TITLE "0:"
    INDEX 01 06:25:50
  TRACK 322 AUDIO
    TITLE "18:cjc023_2636"
    INDEX 01 06:26:47
  TRACK 323 AUDIO
    TITLE "0:"
    INDEX 01 06:27:70
  TRACK 324 AUDIO
    TITLE "19:cjc023_2637"
    INDEX 01 06:28:25
  TRACK 325 AUDIO
    TITLE "0:"
    INDEX 01 06:30:61
  TRACK 326 AUDIO
    TITLE "18:cjc023_2638"
    INDEX 01 06:31:74
  TRACK 327 AUDIO
    TITLE "0:"
    INDEX 01 06:33:22
  TRACK 328 AUDIO
    TITLE "19:cjc023_2639"
    INDEX 01 06:33:44
  TRACK 329 AUDIO
    TITLE "0:"
    INDEX 01 06:36:03
  TRACK 330 AUDIO
    TITLE "18:cjc023_2640"
    INDEX 01 06:37:00
  TRACK 331 AUDIO
    TITLE "0:"
    INDEX 01 06:38:25
  TRACK 332 AUDIO
    TITLE "19:cjc023_2641"
    INDEX 01 06:38:47
  TRACK 333 AUDIO
    TITLE "0:"
    INDEX 01 06:42:29
  TRACK 334 AUDIO
    TITLE "18:cjc023_2642"
    INDEX 01 06:43:28
  TRACK 335 AUDIO
    TITLE "0:"
    INDEX 01 06:44:61
  TRACK 336 AUDIO
    TITLE "19:cjc023_2643"
    INDEX 01 06:45:08
  TRACK 337 AUDIO
    TITLE "0:"
    INDEX 01 06:48:18
  TRACK 338 AUDIO
    TITLE "18:cjc023_2644"
    INDEX 01 06:49:15
  TRACK 339 AUDIO
    TITLE "0:"
    INDEX 01 06:50:46
  TRACK 340 AUDIO
    TITLE "19:cjc023_2645"
    INDEX 01 06:50:67
  TRACK 341 AUDIO
    TITLE "0:"
    INDEX 01 06:52:66
  TRACK 342 AUDIO
    TITLE "18:cjc023_2646"
    INDEX 01 06:53:64
  TRACK 343 AUDIO
    TITLE "0:"
    INDEX 01 06:55:16
  TRACK 344 AUDIO
    TITLE "19:cjc023_2647"
    INDEX 01 06:55:37
  TRACK 345 AUDIO
    TITLE "0:"
    INDEX 01 06:57:46
  TRACK 346 AUDIO
    TITLE "18:cjc023_2648"
    INDEX 01 06:58:43
  TRACK 347 AUDIO
    TITLE "0:"
    INDEX 01 06:59:63
  TRACK 348 AUDIO
    TITLE "19:cjc023_2649"
    INDEX 01 07:00:07
  TRACK 349 AUDIO
    TITLE "0:"
    INDEX 01 07:02:55
  TRACK 350 AUDIO
    TITLE "18:cjc023_2650"
    INDEX 01 07:03:51
  TRACK 351 AUDIO
    TITLE "0:"
    INDEX 01 07:05:16
  TRACK 352 AUDIO
    TITLE "19:cjc023_2651"
    INDEX 01 07:05:40
  TRACK 353 AUDIO
    TITLE "0:"
    INDEX 01 07:09:49
  TRACK 354 AUDIO
    TITLE "18:cjc023_2652"
    INDEX 01 07:10:45
  TRACK 355 AUDIO
    TITLE "0:"
    INDEX 01 07:11:56
  TRACK 356 AUDIO
    TITLE "19:cjc023_2653"
    INDEX 01 07:12:04
  TRACK 357 AUDIO
    TITLE "0:"
    INDEX 01 07:13:67
  TRACK 358 AUDIO
    TITLE "18:cjc023_2654"
    INDEX 01 07:14:64
  TRACK 359 AUDIO
    TITLE "0:"
    INDEX 01 07:16:06
  TRACK 360 AUDIO
    TITLE "19:cjc023_2655"
    INDEX 01 07:16:28
  TRACK 361 AUDIO
    TITLE "0:"
    INDEX 01 07:18:56
  TRACK 362 AUDIO
    TITLE "18:cjc023_2656"
    INDEX 01 07:19:51
  TRACK 363 AUDIO
    TITLE "0:"
    INDEX 01 07:20:57
  TRACK 364 AUDIO
    TITLE "19:cjc023_2657"
    INDEX 01 07:21:09
  TRACK 365 AUDIO
    TITLE "0:"
    INDEX 01 07:22:67
  TRACK 366 AUDIO
    TITLE "18:cjc023_2658"
    INDEX 01 07:23:63
  TRACK 367 AUDIO
    TITLE "0:"
    INDEX 01 07:25:01
  TRACK 368 AUDIO
    TITLE "19:cjc023_2659"
    INDEX 01 07:25:21
  TRACK 369 AUDIO
    TITLE "0:"
    INDEX 01 07:27:61
  TRACK 370 AUDIO
    TITLE "18:cjc023_2660"
    INDEX 01 07:28:62
  TRACK 371 AUDIO
    TITLE "0:"
    INDEX 01 07:30:00
  TRACK 372 AUDIO
    TITLE "19:cjc023_2661"
    INDEX 01 07:30:26
  TRACK 373 AUDIO
    TITLE "0:"
    INDEX 01 07:32:11
  TRACK 374 AUDIO
    TITLE "18:cjc023_2662"
    INDEX 01 07:33:09
  TRACK 375 AUDIO
    TITLE "0:"
    INDEX 01 07:34:10
  TRACK 376 AUDIO
    TITLE "19:cjc023_2663"
    INDEX 01 07:34:37
  TRACK 377 AUDIO
    TITLE "0:"
    INDEX 01 07:36:17
  TRACK 378 AUDIO
    TITLE "18:cjc023_2664"
    INDEX 01 07:37:12
  TRACK 379 AUDIO
    TITLE "0:"
    INDEX 01 07:38:19
  TRACK 380 AUDIO
    TITLE "19:cjc023_2665"
    INDEX 01 07:38:43
  TRACK 381 AUDIO
    TITLE "0:"
    INDEX 01 07:40:71
  TRACK 382 AUDIO
    TITLE "18:cjc023_2666"
    INDEX 01 07:41:67
  TRACK 383 AUDIO
    TITLE "0:"
    INDEX 01 07:42:70
  TRACK 384 AUDIO
    TITLE "19:cjc023_2667"
    INDEX 01 07:43:21
  TRACK 385 AUDIO
    TITLE "0:"
    INDEX 01 07:45:27
  TRACK 386 AUDIO
    TITLE "18:cjc023_2668"
    INDEX 01 07:46:23
  TRACK 387 AUDIO
    TITLE "0:"
    INDEX 01 07:47:26
  TRACK 388 AUDIO
    TITLE "19:cjc023_2669"
    INDEX 01 07:47:48
  TRACK 389 AUDIO
    TITLE "0:"
    INDEX 01 07:49:53
  TRACK 390 AUDIO
    TITLE "18:cjc023_2670"
    INDEX 01 07:50:48
  TRACK 391 AUDIO
    TITLE "0:"
    INDEX 01 07:52:00
  TRACK 392 AUDIO
    TITLE "19:cjc023_2671"
    INDEX 01 07:52:20
  TRACK 393 AUDIO
    TITLE "0:"
    INDEX 01 07:54:03
  TRACK 394 AUDIO
    TITLE "18:cjc023_2672"
    INDEX 01 07:55:00
  TRACK 395 AUDIO
    TITLE "0:"
    INDEX 01 07:56:31
  TRACK 396 AUDIO
    TITLE "19:cjc023_2673"
    INDEX 01 07:56:55
  TRACK 397 AUDIO
    TITLE "0:"
    INDEX 01 07:59:22
  TRACK 398 AUDIO
    TITLE "18:cjc023_2674"
    INDEX 01 08:00:15
  TRACK 399 AUDIO
    TITLE "0:"
    INDEX 01 08:01:50
  TRACK 400 AUDIO
    TITLE "19:cjc023_2675"
    INDEX 01 08:01:73
  TRACK 401 AUDIO
    TITLE "0:"
    INDEX 01 08:05:18
